<svg width="32" height="32" viewBox="0 0 32 32" fill="none" xmlns="http://www.w3.org/2000/svg">
<path fill-rule="evenodd" clip-rule="evenodd" d="M4 15.5C4 8.59644 9.59644 3 16.5 3C23.4036 3 29 8.59644 29 15.5C29 22.4036 23.4036 28 16.5 28C9.59644 28 4 22.4036 4 15.5ZM16.4952 9.80555C15.637 9.80555 14.8289 9.99676 14.1019 10.3308C13.6488 10.5389 13.1128 10.3404 12.9047 9.88731C12.6965 9.43425 12.8951 8.89823 13.3481 8.69007C14.3006 8.25247 15.365 8 16.4952 8C20.6311 8 24 11.3541 24 15.5C24 19.645 20.6416 23 16.4952 23C12.5082 23 9.2626 19.8907 9.01516 15.9806L8.125 16.8889C7.77778 17.25 7.20834 17.2778 6.84722 16.9306C6.48611 16.5833 6.45834 16.0139 6.80556 15.6528L9.32877 13.0347C9.71766 12.6181 10.3704 12.6181 10.7454 13.0347L13.0278 15.6111C13.375 15.9722 13.3472 16.5417 12.9861 16.8889C12.8333 17.0694 12.625 17.1389 12.4028 17.1389C12.1667 17.1389 11.9167 17.0417 11.7361 16.8472L10.813 15.7935C10.9655 18.7972 13.4459 21.1944 16.4952 21.1944C19.6457 21.1944 22.1944 18.6466 22.1944 15.5C22.1944 12.3542 19.6369 9.80555 16.4952 9.80555Z" fill="#626F84"/>
</svg>
